<svg xmlns="http://www.w3.org/2000/svg" viewBox="0 0 40 40" fill="none">
  <rect width="40" height="40" rx="10" fill="#0066cc"/>
  <path d="M20 8c-2.5 0-4.5 2-4.5 4.5 0 1.8 1 3.4 2.5 4.2-.8.6-1.5 1.4-2 2.3-1.2 2.2-.5 5 1.7 6.2 2.2 1.2 5 .5 6.2-1.7.3-.5.5-1 .6-1.5.1.5.3 1 .6 1.5 1.2 2.2 4 2.9 6.2 1.7 2.2-1.2 2.9-4 1.7-6.2-.5-.9-1.2-1.7-2-2.3 1.5-.8 2.5-2.4 2.5-4.2C24.5 10 22.5 8 20 8z" fill="white"/>
  <circle cx="17" cy="12" r="1.2" fill="#0066cc"/>
  <circle cx="23" cy="12" r="1.2" fill="#0066cc"/>
</svg>
